# MagicaVoxel @ Ephtracy

# group
g tvstand1

# material
mtllib tvstand1.mtl
usemtl palette

# normals
vn -1 0 0
vn 1 0 0
vn 0 0 1
vn 0 0 -1
vn 0 -1 0
vn 0 1 0

# texcoords
vt 0.533203 0.5
vt 0.537109 0.5

# verts
v -5 11 12
v -5 11 -12
v -5 12 12
v -5 12 -12
v -4 0 11
v -4 0 9
v -4 0 -9
v -4 0 -11
v -4 4 9
v -4 4 8
v -4 4 -8
v -4 4 -9
v -4 5 8
v -4 5 7
v -4 5 -7
v -4 5 -8
v -4 6 7
v -4 6 -7
v -4 11 11
v -4 11 -11
v 2 0 11
v 2 0 9
v 2 0 -9
v 2 0 -11
v 2 2 11
v 2 2 9
v 2 2 -9
v 2 2 -11
v -2 0 11
v -2 0 9
v -2 0 -9
v -2 0 -11
v -2 2 11
v -2 2 9
v -2 2 -9
v -2 2 -11
v 4 0 11
v 4 0 9
v 4 0 -9
v 4 0 -11
v 4 4 9
v 4 4 8
v 4 4 -8
v 4 4 -9
v 4 5 8
v 4 5 7
v 4 5 -7
v 4 5 -8
v 4 6 7
v 4 6 -7
v 4 11 11
v 4 11 -11
v 5 11 12
v 5 11 -12
v 5 12 12
v 5 12 -12
v -5 11 12
v -5 12 12
v 5 11 12
v 5 12 12
v -4 0 11
v -4 11 11
v -2 0 11
v -2 2 11
v 2 0 11
v 2 2 11
v 4 0 11
v 4 11 11
v -4 5 -7
v -4 6 -7
v 4 5 -7
v 4 6 -7
v -4 4 -8
v -4 5 -8
v 4 4 -8
v 4 5 -8
v -4 0 -9
v -4 4 -9
v -2 0 -9
v -2 2 -9
v 2 0 -9
v 2 2 -9
v 4 0 -9
v 4 4 -9
v -4 0 9
v -4 4 9
v -2 0 9
v -2 2 9
v 2 0 9
v 2 2 9
v 4 0 9
v 4 4 9
v -4 4 8
v -4 5 8
v 4 4 8
v 4 5 8
v -4 5 7
v -4 6 7
v 4 5 7
v 4 6 7
v -4 0 -11
v -4 11 -11
v -2 0 -11
v -2 2 -11
v 2 0 -11
v 2 2 -11
v 4 0 -11
v 4 11 -11
v -5 11 -12
v -5 12 -12
v 5 11 -12
v 5 12 -12
v -4 0 11
v -2 0 11
v 2 0 11
v 4 0 11
v -4 0 9
v -2 0 9
v 2 0 9
v 4 0 9
v -4 0 -9
v -2 0 -9
v 2 0 -9
v 4 0 -9
v -4 0 -11
v -2 0 -11
v 2 0 -11
v 4 0 -11
v -2 2 11
v 2 2 11
v -2 2 9
v 2 2 9
v -2 2 -9
v 2 2 -9
v -2 2 -11
v 2 2 -11
v -4 4 9
v 4 4 9
v -4 4 8
v 4 4 8
v -4 4 -8
v 4 4 -8
v -4 4 -9
v 4 4 -9
v -4 5 8
v 4 5 8
v -4 5 7
v 4 5 7
v -4 5 -7
v 4 5 -7
v -4 5 -8
v 4 5 -8
v -4 6 7
v 4 6 7
v -4 6 -7
v 4 6 -7
v -5 11 12
v 5 11 12
v -4 11 11
v 4 11 11
v -4 11 -11
v 4 11 -11
v -5 11 -12
v 5 11 -12
v -5 12 12
v 5 12 12
v -5 12 -12
v 5 12 -12

# faces
f 3/1/1 2/1/1 1/1/1
f 4/1/1 2/1/1 3/1/1
f 9/2/1 6/2/1 5/2/1
f 12/2/1 8/2/1 7/2/1
f 13/2/1 10/2/1 9/2/1
f 16/2/1 12/2/1 11/2/1
f 17/2/1 14/2/1 13/2/1
f 18/2/1 16/2/1 15/2/1
f 19/2/1 17/2/1 13/2/1
f 19/2/1 18/2/1 17/2/1
f 19/2/1 9/2/1 5/2/1
f 19/2/1 13/2/1 9/2/1
f 20/2/1 16/2/1 18/2/1
f 20/2/1 18/2/1 19/2/1
f 20/2/1 8/2/1 12/2/1
f 20/2/1 12/2/1 16/2/1
f 25/2/1 22/2/1 21/2/1
f 26/2/1 22/2/1 25/2/1
f 27/2/1 24/2/1 23/2/1
f 28/2/1 24/2/1 27/2/1
f 29/2/2 30/2/2 33/2/2
f 33/2/2 30/2/2 34/2/2
f 31/2/2 32/2/2 35/2/2
f 35/2/2 32/2/2 36/2/2
f 37/2/2 38/2/2 41/2/2
f 39/2/2 40/2/2 44/2/2
f 41/2/2 42/2/2 45/2/2
f 43/2/2 44/2/2 48/2/2
f 45/2/2 46/2/2 49/2/2
f 47/2/2 48/2/2 50/2/2
f 45/2/2 49/2/2 51/2/2
f 49/2/2 50/2/2 51/2/2
f 37/2/2 41/2/2 51/2/2
f 41/2/2 45/2/2 51/2/2
f 50/2/2 48/2/2 52/2/2
f 51/2/2 50/2/2 52/2/2
f 44/2/2 40/2/2 52/2/2
f 48/2/2 44/2/2 52/2/2
f 53/1/2 54/1/2 55/1/2
f 55/1/2 54/1/2 56/1/2
f 59/1/3 58/1/3 57/1/3
f 60/1/3 58/1/3 59/1/3
f 63/2/3 62/2/3 61/2/3
f 64/2/3 62/2/3 63/2/3
f 66/2/3 62/2/3 64/2/3
f 67/2/3 66/2/3 65/2/3
f 68/2/3 62/2/3 66/2/3
f 68/2/3 66/2/3 67/2/3
f 71/2/3 70/2/3 69/2/3
f 72/2/3 70/2/3 71/2/3
f 75/2/3 74/2/3 73/2/3
f 76/2/3 74/2/3 75/2/3
f 79/2/3 78/2/3 77/2/3
f 80/2/3 78/2/3 79/2/3
f 82/2/3 78/2/3 80/2/3
f 83/2/3 82/2/3 81/2/3
f 84/2/3 78/2/3 82/2/3
f 84/2/3 82/2/3 83/2/3
f 85/2/4 86/2/4 87/2/4
f 87/2/4 86/2/4 88/2/4
f 88/2/4 86/2/4 90/2/4
f 89/2/4 90/2/4 91/2/4
f 90/2/4 86/2/4 92/2/4
f 91/2/4 90/2/4 92/2/4
f 93/2/4 94/2/4 95/2/4
f 95/2/4 94/2/4 96/2/4
f 97/2/4 98/2/4 99/2/4
f 99/2/4 98/2/4 100/2/4
f 101/2/4 102/2/4 103/2/4
f 103/2/4 102/2/4 104/2/4
f 104/2/4 102/2/4 106/2/4
f 105/2/4 106/2/4 107/2/4
f 106/2/4 102/2/4 108/2/4
f 107/2/4 106/2/4 108/2/4
f 109/1/4 110/1/4 111/1/4
f 111/1/4 110/1/4 112/1/4
f 117/2/5 114/2/5 113/2/5
f 118/2/5 114/2/5 117/2/5
f 119/2/5 116/2/5 115/2/5
f 120/2/5 116/2/5 119/2/5
f 125/2/5 122/2/5 121/2/5
f 126/2/5 122/2/5 125/2/5
f 127/2/5 124/2/5 123/2/5
f 128/2/5 124/2/5 127/2/5
f 131/2/5 130/2/5 129/2/5
f 132/2/5 130/2/5 131/2/5
f 135/2/5 134/2/5 133/2/5
f 136/2/5 134/2/5 135/2/5
f 139/2/5 138/2/5 137/2/5
f 140/2/5 138/2/5 139/2/5
f 143/2/5 142/2/5 141/2/5
f 144/2/5 142/2/5 143/2/5
f 147/2/5 146/2/5 145/2/5
f 148/2/5 146/2/5 147/2/5
f 151/2/5 150/2/5 149/2/5
f 152/2/5 150/2/5 151/2/5
f 155/2/5 154/2/5 153/2/5
f 156/2/5 154/2/5 155/2/5
f 159/1/5 158/1/5 157/1/5
f 160/1/5 158/1/5 159/1/5
f 161/1/5 159/1/5 157/1/5
f 162/1/5 158/1/5 160/1/5
f 163/1/5 161/1/5 157/1/5
f 163/1/5 162/1/5 161/1/5
f 164/1/5 158/1/5 162/1/5
f 164/1/5 162/1/5 163/1/5
f 165/1/6 166/1/6 167/1/6
f 167/1/6 166/1/6 168/1/6
