# MagicaVoxel @ Ephtracy

# group
g wooden_plank1_housing

# material
mtllib wooden_plank1_housing.mtl
usemtl palette

# normals
vn -1 0 0
vn 1 0 0
vn 0 0 1
vn 0 0 -1
vn 0 -1 0
vn 0 1 0

# texcoords
vt 0.533203 0.5
vt 0.537109 0.5

# verts
v -10.5 0 -0
v -10.5 0 -1
v -10.5 0 -2
v -10.5 21 -0
v -10.5 21 -1
v -10.5 21 -2
v -8.5 0 -0
v -8.5 0 -1
v -8.5 21 -0
v -8.5 21 -1
v -6.5 0 -0
v -6.5 0 -1
v -6.5 21 -0
v -6.5 21 -1
v -4.5 0 -0
v -4.5 0 -1
v -4.5 21 -0
v -4.5 21 -1
v -2.5 0 -0
v -2.5 0 -1
v -2.5 21 -0
v -2.5 21 -1
v -0.5 0 -0
v -0.5 0 -1
v -0.5 21 -0
v -0.5 21 -1
v 1.5 0 -0
v 1.5 0 -1
v 1.5 21 -0
v 1.5 21 -1
v 3.5 0 -0
v 3.5 0 -1
v 3.5 21 -0
v 3.5 21 -1
v 5.5 0 -0
v 5.5 0 -1
v 5.5 21 -0
v 5.5 21 -1
v 7.5 0 -0
v 7.5 0 -1
v 7.5 21 -0
v 7.5 21 -1
v 9.5 0 -0
v 9.5 0 -1
v 9.5 21 -0
v 9.5 21 -1
v -9.5 0 -0
v -9.5 0 -1
v -9.5 21 -0
v -9.5 21 -1
v -7.5 0 -0
v -7.5 0 -1
v -7.5 21 -0
v -7.5 21 -1
v -5.5 0 -0
v -5.5 0 -1
v -5.5 21 -0
v -5.5 21 -1
v -3.5 0 -0
v -3.5 0 -1
v -3.5 21 -0
v -3.5 21 -1
v -1.5 0 -0
v -1.5 0 -1
v -1.5 21 -0
v -1.5 21 -1
v 0.5 0 -0
v 0.5 0 -1
v 0.5 21 -0
v 0.5 21 -1
v 2.5 0 -0
v 2.5 0 -1
v 2.5 21 -0
v 2.5 21 -1
v 4.5 0 -0
v 4.5 0 -1
v 4.5 21 -0
v 4.5 21 -1
v 6.5 0 -0
v 6.5 0 -1
v 6.5 21 -0
v 6.5 21 -1
v 8.5 0 -0
v 8.5 0 -1
v 8.5 21 -0
v 8.5 21 -1
v 10.5 0 -0
v 10.5 0 -1
v 10.5 0 -2
v 10.5 21 -0
v 10.5 21 -1
v 10.5 21 -2
v -10.5 0 -0
v -10.5 21 -0
v -9.5 0 -0
v -9.5 21 -0
v -8.5 0 -0
v -8.5 21 -0
v -7.5 0 -0
v -7.5 21 -0
v -6.5 0 -0
v -6.5 21 -0
v -5.5 0 -0
v -5.5 21 -0
v -4.5 0 -0
v -4.5 21 -0
v -3.5 0 -0
v -3.5 21 -0
v -2.5 0 -0
v -2.5 21 -0
v -1.5 0 -0
v -1.5 21 -0
v -0.5 0 -0
v -0.5 21 -0
v 0.5 0 -0
v 0.5 21 -0
v 1.5 0 -0
v 1.5 21 -0
v 2.5 0 -0
v 2.5 21 -0
v 3.5 0 -0
v 3.5 21 -0
v 4.5 0 -0
v 4.5 21 -0
v 5.5 0 -0
v 5.5 21 -0
v 6.5 0 -0
v 6.5 21 -0
v 7.5 0 -0
v 7.5 21 -0
v 8.5 0 -0
v 8.5 21 -0
v 9.5 0 -0
v 9.5 21 -0
v 10.5 0 -0
v 10.5 21 -0
v -9.5 0 -1
v -9.5 21 -1
v -8.5 0 -1
v -8.5 21 -1
v -7.5 0 -1
v -7.5 21 -1
v -6.5 0 -1
v -6.5 21 -1
v -5.5 0 -1
v -5.5 21 -1
v -4.5 0 -1
v -4.5 21 -1
v -3.5 0 -1
v -3.5 21 -1
v -2.5 0 -1
v -2.5 21 -1
v -1.5 0 -1
v -1.5 21 -1
v -0.5 0 -1
v -0.5 21 -1
v 0.5 0 -1
v 0.5 21 -1
v 1.5 0 -1
v 1.5 21 -1
v 2.5 0 -1
v 2.5 21 -1
v 3.5 0 -1
v 3.5 21 -1
v 4.5 0 -1
v 4.5 21 -1
v 5.5 0 -1
v 5.5 21 -1
v 6.5 0 -1
v 6.5 21 -1
v 7.5 0 -1
v 7.5 21 -1
v 8.5 0 -1
v 8.5 21 -1
v 9.5 0 -1
v 9.5 21 -1
v -10.5 0 -2
v -10.5 21 -2
v 10.5 0 -2
v 10.5 21 -2
v -10.5 0 -0
v -9.5 0 -0
v -8.5 0 -0
v -7.5 0 -0
v -6.5 0 -0
v -5.5 0 -0
v -4.5 0 -0
v -3.5 0 -0
v -2.5 0 -0
v -1.5 0 -0
v -0.5 0 -0
v 0.5 0 -0
v 1.5 0 -0
v 2.5 0 -0
v 3.5 0 -0
v 4.5 0 -0
v 5.5 0 -0
v 6.5 0 -0
v 7.5 0 -0
v 8.5 0 -0
v 9.5 0 -0
v 10.5 0 -0
v -10.5 0 -1
v -9.5 0 -1
v -8.5 0 -1
v -7.5 0 -1
v -6.5 0 -1
v -5.5 0 -1
v -4.5 0 -1
v -3.5 0 -1
v -2.5 0 -1
v -1.5 0 -1
v -0.5 0 -1
v 0.5 0 -1
v 1.5 0 -1
v 2.5 0 -1
v 3.5 0 -1
v 4.5 0 -1
v 5.5 0 -1
v 6.5 0 -1
v 7.5 0 -1
v 8.5 0 -1
v 9.5 0 -1
v 10.5 0 -1
v -10.5 0 -2
v 10.5 0 -2
v -10.5 21 -0
v -9.5 21 -0
v -8.5 21 -0
v -7.5 21 -0
v -6.5 21 -0
v -5.5 21 -0
v -4.5 21 -0
v -3.5 21 -0
v -2.5 21 -0
v -1.5 21 -0
v -0.5 21 -0
v 0.5 21 -0
v 1.5 21 -0
v 2.5 21 -0
v 3.5 21 -0
v 4.5 21 -0
v 5.5 21 -0
v 6.5 21 -0
v 7.5 21 -0
v 8.5 21 -0
v 9.5 21 -0
v 10.5 21 -0
v -10.5 21 -1
v -9.5 21 -1
v -8.5 21 -1
v -7.5 21 -1
v -6.5 21 -1
v -5.5 21 -1
v -4.5 21 -1
v -3.5 21 -1
v -2.5 21 -1
v -1.5 21 -1
v -0.5 21 -1
v 0.5 21 -1
v 1.5 21 -1
v 2.5 21 -1
v 3.5 21 -1
v 4.5 21 -1
v 5.5 21 -1
v 6.5 21 -1
v 7.5 21 -1
v 8.5 21 -1
v 9.5 21 -1
v 10.5 21 -1
v -10.5 21 -2
v 10.5 21 -2

# faces
f 4/2/1 2/2/1 1/2/1
f 5/1/1 3/1/1 2/1/1
f 5/2/1 2/2/1 4/2/1
f 6/1/1 3/1/1 5/1/1
f 9/2/1 8/2/1 7/2/1
f 10/2/1 8/2/1 9/2/1
f 13/2/1 12/2/1 11/2/1
f 14/2/1 12/2/1 13/2/1
f 17/2/1 16/2/1 15/2/1
f 18/2/1 16/2/1 17/2/1
f 21/2/1 20/2/1 19/2/1
f 22/2/1 20/2/1 21/2/1
f 25/2/1 24/2/1 23/2/1
f 26/2/1 24/2/1 25/2/1
f 29/2/1 28/2/1 27/2/1
f 30/2/1 28/2/1 29/2/1
f 33/2/1 32/2/1 31/2/1
f 34/2/1 32/2/1 33/2/1
f 37/2/1 36/2/1 35/2/1
f 38/2/1 36/2/1 37/2/1
f 41/2/1 40/2/1 39/2/1
f 42/2/1 40/2/1 41/2/1
f 45/2/1 44/2/1 43/2/1
f 46/2/1 44/2/1 45/2/1
f 47/2/2 48/2/2 49/2/2
f 49/2/2 48/2/2 50/2/2
f 51/2/2 52/2/2 53/2/2
f 53/2/2 52/2/2 54/2/2
f 55/2/2 56/2/2 57/2/2
f 57/2/2 56/2/2 58/2/2
f 59/2/2 60/2/2 61/2/2
f 61/2/2 60/2/2 62/2/2
f 63/2/2 64/2/2 65/2/2
f 65/2/2 64/2/2 66/2/2
f 67/2/2 68/2/2 69/2/2
f 69/2/2 68/2/2 70/2/2
f 71/2/2 72/2/2 73/2/2
f 73/2/2 72/2/2 74/2/2
f 75/2/2 76/2/2 77/2/2
f 77/2/2 76/2/2 78/2/2
f 79/2/2 80/2/2 81/2/2
f 81/2/2 80/2/2 82/2/2
f 83/2/2 84/2/2 85/2/2
f 85/2/2 84/2/2 86/2/2
f 87/2/2 88/2/2 90/2/2
f 88/1/2 89/1/2 91/1/2
f 90/2/2 88/2/2 91/2/2
f 91/1/2 89/1/2 92/1/2
f 95/2/3 94/2/3 93/2/3
f 96/2/3 94/2/3 95/2/3
f 99/2/3 98/2/3 97/2/3
f 100/2/3 98/2/3 99/2/3
f 103/2/3 102/2/3 101/2/3
f 104/2/3 102/2/3 103/2/3
f 107/2/3 106/2/3 105/2/3
f 108/2/3 106/2/3 107/2/3
f 111/2/3 110/2/3 109/2/3
f 112/2/3 110/2/3 111/2/3
f 115/2/3 114/2/3 113/2/3
f 116/2/3 114/2/3 115/2/3
f 119/2/3 118/2/3 117/2/3
f 120/2/3 118/2/3 119/2/3
f 123/2/3 122/2/3 121/2/3
f 124/2/3 122/2/3 123/2/3
f 127/2/3 126/2/3 125/2/3
f 128/2/3 126/2/3 127/2/3
f 131/2/3 130/2/3 129/2/3
f 132/2/3 130/2/3 131/2/3
f 135/2/3 134/2/3 133/2/3
f 136/2/3 134/2/3 135/2/3
f 139/1/3 138/1/3 137/1/3
f 140/1/3 138/1/3 139/1/3
f 143/1/3 142/1/3 141/1/3
f 144/1/3 142/1/3 143/1/3
f 147/1/3 146/1/3 145/1/3
f 148/1/3 146/1/3 147/1/3
f 151/1/3 150/1/3 149/1/3
f 152/1/3 150/1/3 151/1/3
f 155/1/3 154/1/3 153/1/3
f 156/1/3 154/1/3 155/1/3
f 159/1/3 158/1/3 157/1/3
f 160/1/3 158/1/3 159/1/3
f 163/1/3 162/1/3 161/1/3
f 164/1/3 162/1/3 163/1/3
f 167/1/3 166/1/3 165/1/3
f 168/1/3 166/1/3 167/1/3
f 171/1/3 170/1/3 169/1/3
f 172/1/3 170/1/3 171/1/3
f 175/1/3 174/1/3 173/1/3
f 176/1/3 174/1/3 175/1/3
f 177/1/4 178/1/4 179/1/4
f 179/1/4 178/1/4 180/1/4
f 203/2/5 182/2/5 181/2/5
f 204/2/5 182/2/5 203/2/5
f 205/2/5 184/2/5 183/2/5
f 206/2/5 184/2/5 205/2/5
f 207/2/5 186/2/5 185/2/5
f 208/2/5 186/2/5 207/2/5
f 209/2/5 188/2/5 187/2/5
f 210/2/5 188/2/5 209/2/5
f 211/2/5 190/2/5 189/2/5
f 212/2/5 190/2/5 211/2/5
f 213/2/5 192/2/5 191/2/5
f 214/2/5 192/2/5 213/2/5
f 215/2/5 194/2/5 193/2/5
f 216/2/5 194/2/5 215/2/5
f 217/2/5 196/2/5 195/2/5
f 218/2/5 196/2/5 217/2/5
f 219/2/5 198/2/5 197/2/5
f 220/2/5 198/2/5 219/2/5
f 221/2/5 200/2/5 199/2/5
f 222/2/5 200/2/5 221/2/5
f 223/2/5 202/2/5 201/2/5
f 224/2/5 202/2/5 223/2/5
f 225/1/5 222/1/5 221/1/5
f 225/1/5 204/1/5 203/1/5
f 225/1/5 224/1/5 223/1/5
f 225/1/5 223/1/5 222/1/5
f 225/1/5 206/1/5 205/1/5
f 225/1/5 221/1/5 220/1/5
f 225/1/5 208/1/5 207/1/5
f 225/1/5 219/1/5 218/1/5
f 225/1/5 210/1/5 209/1/5
f 225/1/5 217/1/5 216/1/5
f 225/1/5 212/1/5 211/1/5
f 225/1/5 215/1/5 214/1/5
f 225/1/5 214/1/5 213/1/5
f 225/1/5 213/1/5 212/1/5
f 225/1/5 216/1/5 215/1/5
f 225/1/5 211/1/5 210/1/5
f 225/1/5 218/1/5 217/1/5
f 225/1/5 209/1/5 208/1/5
f 225/1/5 220/1/5 219/1/5
f 225/1/5 207/1/5 206/1/5
f 225/1/5 205/1/5 204/1/5
f 226/1/5 224/1/5 225/1/5
f 227/2/6 228/2/6 249/2/6
f 249/2/6 228/2/6 250/2/6
f 229/2/6 230/2/6 251/2/6
f 251/2/6 230/2/6 252/2/6
f 231/2/6 232/2/6 253/2/6
f 253/2/6 232/2/6 254/2/6
f 233/2/6 234/2/6 255/2/6
f 255/2/6 234/2/6 256/2/6
f 235/2/6 236/2/6 257/2/6
f 257/2/6 236/2/6 258/2/6
f 237/2/6 238/2/6 259/2/6
f 259/2/6 238/2/6 260/2/6
f 239/2/6 240/2/6 261/2/6
f 261/2/6 240/2/6 262/2/6
f 241/2/6 242/2/6 263/2/6
f 263/2/6 242/2/6 264/2/6
f 243/2/6 244/2/6 265/2/6
f 265/2/6 244/2/6 266/2/6
f 245/2/6 246/2/6 267/2/6
f 267/2/6 246/2/6 268/2/6
f 247/2/6 248/2/6 269/2/6
f 269/2/6 248/2/6 270/2/6
f 267/1/6 268/1/6 271/1/6
f 249/1/6 250/1/6 271/1/6
f 269/1/6 270/1/6 271/1/6
f 268/1/6 269/1/6 271/1/6
f 251/1/6 252/1/6 271/1/6
f 266/1/6 267/1/6 271/1/6
f 253/1/6 254/1/6 271/1/6
f 264/1/6 265/1/6 271/1/6
f 255/1/6 256/1/6 271/1/6
f 262/1/6 263/1/6 271/1/6
f 257/1/6 258/1/6 271/1/6
f 260/1/6 261/1/6 271/1/6
f 259/1/6 260/1/6 271/1/6
f 258/1/6 259/1/6 271/1/6
f 261/1/6 262/1/6 271/1/6
f 256/1/6 257/1/6 271/1/6
f 263/1/6 264/1/6 271/1/6
f 254/1/6 255/1/6 271/1/6
f 265/1/6 266/1/6 271/1/6
f 252/1/6 253/1/6 271/1/6
f 250/1/6 251/1/6 271/1/6
f 271/1/6 270/1/6 272/1/6
