# MagicaVoxel @ Ephtracy

# group
g tv1

# material
mtllib tv1.mtl
usemtl palette

# normals
vn -1 0 0
vn 1 0 0
vn 0 0 1
vn 0 0 -1
vn 0 -1 0
vn 0 1 0

# texcoords
vt 0.990234 0.5
vt 0.994141 0.5

# verts
v -3 0 5
v -3 0 -5
v -3 1 5
v -3 1 -5
v -1 1 1
v -1 1 -1
v -1 3 10
v -1 3 1
v -1 3 -1
v -1 3 -10
v -1 4 9
v -1 4 -9
v -1 11 9
v -1 11 -9
v -1 12 10
v -1 12 -10
v 1 1 1
v 1 1 -1
v 1 3 10
v 1 3 1
v 1 3 -1
v 1 3 -10
v 1 12 10
v 1 12 -10
v 3 0 5
v 3 0 -5
v 3 1 5
v 3 1 -5
v -1 3 10
v -1 12 10
v 1 3 10
v 1 12 10
v -3 0 5
v -3 1 5
v 3 0 5
v 3 1 5
v -1 1 1
v -1 3 1
v 1 1 1
v 1 3 1
v -1 1 -1
v -1 3 -1
v 1 1 -1
v 1 3 -1
v -3 0 -5
v -3 1 -5
v 3 0 -5
v 3 1 -5
v -1 3 -10
v -1 12 -10
v 1 3 -10
v 1 12 -10
v -3 0 5
v 3 0 5
v -3 0 -5
v 3 0 -5
v -1 3 10
v 1 3 10
v -1 3 1
v 1 3 1
v -1 3 -1
v 1 3 -1
v -1 3 -10
v 1 3 -10
v -3 1 5
v 3 1 5
v -1 1 1
v 1 1 1
v -1 1 -1
v 1 1 -1
v -3 1 -5
v 3 1 -5
v -1 12 10
v 1 12 10
v -1 12 -10
v 1 12 -10

# faces
f 3/2/1 2/2/1 1/2/1
f 4/2/1 2/2/1 3/2/1
f 8/2/1 6/2/1 5/2/1
f 9/2/1 6/2/1 8/2/1
f 11/1/1 8/1/1 7/1/1
f 11/1/1 10/1/1 9/1/1
f 11/1/1 9/1/1 8/1/1
f 12/1/1 10/1/1 11/1/1
f 13/1/1 11/1/1 7/1/1
f 13/2/1 12/2/1 11/2/1
f 14/1/1 10/1/1 12/1/1
f 14/2/1 12/2/1 13/2/1
f 15/1/1 13/1/1 7/1/1
f 15/1/1 14/1/1 13/1/1
f 16/1/1 10/1/1 14/1/1
f 16/1/1 14/1/1 15/1/1
f 17/2/2 18/2/2 20/2/2
f 20/2/2 18/2/2 21/2/2
f 19/1/2 20/1/2 23/1/2
f 21/1/2 22/1/2 23/1/2
f 20/1/2 21/1/2 23/1/2
f 23/1/2 22/1/2 24/1/2
f 25/2/2 26/2/2 27/2/2
f 27/2/2 26/2/2 28/2/2
f 31/1/3 30/1/3 29/1/3
f 32/1/3 30/1/3 31/1/3
f 35/2/3 34/2/3 33/2/3
f 36/2/3 34/2/3 35/2/3
f 39/2/3 38/2/3 37/2/3
f 40/2/3 38/2/3 39/2/3
f 41/2/4 42/2/4 43/2/4
f 43/2/4 42/2/4 44/2/4
f 45/2/4 46/2/4 47/2/4
f 47/2/4 46/2/4 48/2/4
f 49/1/4 50/1/4 51/1/4
f 51/1/4 50/1/4 52/1/4
f 55/2/5 54/2/5 53/2/5
f 56/2/5 54/2/5 55/2/5
f 59/1/5 58/1/5 57/1/5
f 60/1/5 58/1/5 59/1/5
f 63/1/5 62/1/5 61/1/5
f 64/1/5 62/1/5 63/1/5
f 65/2/6 66/2/6 67/2/6
f 67/2/6 66/2/6 68/2/6
f 65/2/6 67/2/6 69/2/6
f 68/2/6 66/2/6 70/2/6
f 65/2/6 69/2/6 71/2/6
f 69/2/6 70/2/6 71/2/6
f 70/2/6 66/2/6 72/2/6
f 71/2/6 70/2/6 72/2/6
f 73/1/6 74/1/6 75/1/6
f 75/1/6 74/1/6 76/1/6
