# MagicaVoxel @ Ephtracy

# group
g mushroom_red1

# material
mtllib mushroom_red1.mtl
usemtl palette

# normals
vn -1 0 0
vn 1 0 0
vn 0 0 1
vn 0 0 -1
vn 0 -1 0
vn 0 1 0

# texcoords
vt 0.841797 0.5
vt 0.962891 0.5

# verts
v -3 3 3
v -3 3 1
v -3 3 -0
v -3 3 -3
v -3 4 3
v -3 4 1
v -3 4 -0
v -3 4 -3
v -2 4 2
v -2 4 1
v -2 4 -0
v -2 4 -1
v -2 4 -2
v -2 5 2
v -2 5 -1
v -2 5 -2
v -1 0 1
v -1 0 -1
v -1 3 1
v -1 3 -1
v -1 5 1
v -1 5 -1
v -1 6 1
v -1 6 -1
v 1 0 1
v 1 0 -1
v 1 3 1
v 1 3 -1
v 1 5 1
v 1 5 -0
v 1 5 -1
v 1 6 1
v 1 6 -0
v 1 6 -1
v 2 4 2
v 2 4 1
v 2 4 -1
v 2 4 -2
v 2 5 2
v 2 5 -1
v 2 5 -2
v 3 3 3
v 3 3 2
v 3 3 1
v 3 3 -3
v 3 4 3
v 3 4 2
v 3 4 1
v 3 4 -3
v -3 3 3
v -3 4 3
v 3 3 3
v 3 4 3
v -2 4 2
v -2 5 2
v -1 4 2
v -1 5 2
v 0 4 2
v 0 5 2
v 2 4 2
v 2 5 2
v -1 0 1
v -1 3 1
v -1 5 1
v -1 6 1
v 0 5 1
v 0 6 1
v 1 0 1
v 1 3 1
v 1 5 1
v 1 6 1
v -1 0 -1
v -1 3 -1
v -1 5 -1
v -1 6 -1
v 1 0 -1
v 1 3 -1
v 1 5 -1
v 1 6 -1
v -2 4 -2
v -2 5 -2
v -1 4 -2
v -1 5 -2
v 1 4 -2
v 1 5 -2
v 2 4 -2
v 2 5 -2
v -3 3 -3
v -3 4 -3
v 1 3 -3
v 1 4 -3
v 2 3 -3
v 2 4 -3
v 3 3 -3
v 3 4 -3
v -1 0 1
v 1 0 1
v -1 0 -1
v 1 0 -1
v -3 3 3
v 3 3 3
v 2 3 2
v 3 3 2
v -3 3 1
v -2 3 1
v -1 3 1
v 1 3 1
v 2 3 1
v 3 3 1
v -3 3 -0
v -2 3 -0
v -1 3 -1
v 1 3 -1
v 1 3 -2
v 2 3 -2
v -3 3 -3
v 1 3 -3
v 2 3 -3
v 3 3 -3
v -3 4 3
v 3 4 3
v -2 4 2
v -1 4 2
v 0 4 2
v 2 4 2
v 3 4 2
v -3 4 1
v -2 4 1
v 2 4 1
v 3 4 1
v -3 4 -0
v -2 4 -0
v -2 4 -1
v 2 4 -1
v -2 4 -2
v -1 4 -2
v 1 4 -2
v 2 4 -2
v -3 4 -3
v 1 4 -3
v 2 4 -3
v 3 4 -3
v -2 5 2
v -1 5 2
v 0 5 2
v 2 5 2
v -1 5 1
v 0 5 1
v 1 5 1
v 1 5 -0
v -2 5 -1
v -1 5 -1
v 1 5 -1
v 2 5 -1
v -2 5 -2
v -1 5 -2
v 1 5 -2
v 2 5 -2
v -1 6 1
v 0 6 1
v 1 6 1
v 0 6 -0
v 1 6 -0
v -1 6 -1
v 1 6 -1

# faces
f 5/1/1 2/1/1 1/1/1
f 6/2/1 3/2/1 2/2/1
f 6/1/1 2/1/1 5/1/1
f 7/1/1 4/1/1 3/1/1
f 7/2/1 3/2/1 6/2/1
f 8/1/1 4/1/1 7/1/1
f 14/1/1 10/1/1 9/1/1
f 14/1/1 11/1/1 10/1/1
f 14/1/1 12/1/1 11/1/1
f 15/2/1 13/2/1 12/2/1
f 15/1/1 12/1/1 14/1/1
f 16/2/1 13/2/1 15/2/1
f 19/2/1 18/2/1 17/2/1
f 20/2/1 18/2/1 19/2/1
f 23/1/1 22/1/1 21/1/1
f 24/1/1 22/1/1 23/1/1
f 25/2/2 26/2/2 27/2/2
f 27/2/2 26/2/2 28/2/2
f 29/2/2 30/2/2 32/2/2
f 30/1/2 31/1/2 33/1/2
f 32/2/2 30/2/2 33/2/2
f 33/1/2 31/1/2 34/1/2
f 35/1/2 36/1/2 39/1/2
f 36/1/2 37/1/2 39/1/2
f 37/2/2 38/2/2 40/2/2
f 39/1/2 37/1/2 40/1/2
f 40/2/2 38/2/2 41/2/2
f 42/1/2 43/1/2 46/1/2
f 43/2/2 44/2/2 47/2/2
f 46/1/2 43/1/2 47/1/2
f 44/1/2 45/1/2 48/1/2
f 47/2/2 44/2/2 48/2/2
f 48/1/2 45/1/2 49/1/2
f 52/1/3 51/1/3 50/1/3
f 53/1/3 51/1/3 52/1/3
f 56/1/3 55/1/3 54/1/3
f 57/1/3 55/1/3 56/1/3
f 58/2/3 57/2/3 56/2/3
f 59/2/3 57/2/3 58/2/3
f 60/1/3 59/1/3 58/1/3
f 61/1/3 59/1/3 60/1/3
f 66/1/3 65/1/3 64/1/3
f 67/1/3 65/1/3 66/1/3
f 68/2/3 63/2/3 62/2/3
f 69/2/3 63/2/3 68/2/3
f 70/2/3 67/2/3 66/2/3
f 71/2/3 67/2/3 70/2/3
f 72/2/4 73/2/4 76/2/4
f 76/2/4 73/2/4 77/2/4
f 74/1/4 75/1/4 78/1/4
f 78/1/4 75/1/4 79/1/4
f 80/2/4 81/2/4 82/2/4
f 82/2/4 81/2/4 83/2/4
f 82/1/4 83/1/4 84/1/4
f 84/1/4 83/1/4 85/1/4
f 84/2/4 85/2/4 86/2/4
f 86/2/4 85/2/4 87/2/4
f 88/1/4 89/1/4 90/1/4
f 90/1/4 89/1/4 91/1/4
f 90/2/4 91/2/4 92/2/4
f 92/2/4 91/2/4 93/2/4
f 92/1/4 93/1/4 94/1/4
f 94/1/4 93/1/4 95/1/4
f 98/2/5 97/2/5 96/2/5
f 99/2/5 97/2/5 98/2/5
f 102/1/5 101/1/5 100/1/5
f 103/1/5 101/1/5 102/1/5
f 104/1/5 102/1/5 100/1/5
f 105/1/5 102/1/5 104/1/5
f 106/1/5 102/1/5 105/1/5
f 107/1/5 102/1/5 106/1/5
f 108/2/5 103/2/5 102/2/5
f 108/1/5 102/1/5 107/1/5
f 109/2/5 103/2/5 108/2/5
f 110/2/5 105/2/5 104/2/5
f 111/1/5 106/1/5 105/1/5
f 111/2/5 105/2/5 110/2/5
f 112/1/5 111/1/5 110/1/5
f 112/1/5 106/1/5 111/1/5
f 113/1/5 109/1/5 108/1/5
f 113/1/5 108/1/5 107/1/5
f 114/1/5 109/1/5 113/1/5
f 114/1/5 113/1/5 112/1/5
f 115/1/5 109/1/5 114/1/5
f 116/1/5 112/1/5 110/1/5
f 116/1/5 114/1/5 112/1/5
f 117/2/5 115/2/5 114/2/5
f 117/1/5 114/1/5 116/1/5
f 118/1/5 109/1/5 115/1/5
f 118/2/5 115/2/5 117/2/5
f 119/1/5 109/1/5 118/1/5
f 120/1/6 121/1/6 122/1/6
f 122/1/6 121/1/6 123/1/6
f 123/1/6 121/1/6 124/1/6
f 124/1/6 121/1/6 125/1/6
f 125/1/6 121/1/6 126/1/6
f 120/1/6 122/1/6 127/1/6
f 127/1/6 122/1/6 128/1/6
f 125/2/6 126/2/6 129/2/6
f 129/2/6 126/2/6 130/2/6
f 127/2/6 128/2/6 131/2/6
f 131/2/6 128/2/6 132/2/6
f 131/1/6 132/1/6 133/1/6
f 129/1/6 130/1/6 134/1/6
f 131/1/6 133/1/6 135/1/6
f 134/1/6 130/1/6 138/1/6
f 136/1/6 137/1/6 139/1/6
f 131/1/6 135/1/6 139/1/6
f 135/1/6 136/1/6 139/1/6
f 137/2/6 138/2/6 140/2/6
f 139/1/6 137/1/6 140/1/6
f 138/1/6 130/1/6 141/1/6
f 140/2/6 138/2/6 141/2/6
f 141/1/6 130/1/6 142/1/6
f 143/1/6 144/1/6 147/1/6
f 144/2/6 145/2/6 147/2/6
f 145/1/6 146/1/6 148/1/6
f 147/2/6 145/2/6 148/2/6
f 148/1/6 146/1/6 149/1/6
f 149/1/6 146/1/6 150/1/6
f 143/1/6 147/1/6 151/1/6
f 151/1/6 147/1/6 152/1/6
f 150/1/6 146/1/6 153/1/6
f 153/1/6 146/1/6 154/1/6
f 151/2/6 152/2/6 155/2/6
f 152/1/6 153/1/6 156/1/6
f 155/2/6 152/2/6 156/2/6
f 153/2/6 154/2/6 157/2/6
f 156/1/6 153/1/6 157/1/6
f 157/2/6 154/2/6 158/2/6
f 159/1/6 160/1/6 162/1/6
f 160/2/6 161/2/6 162/2/6
f 162/2/6 161/2/6 163/2/6
f 159/1/6 162/1/6 164/1/6
f 162/1/6 163/1/6 164/1/6
f 164/1/6 163/1/6 165/1/6
